<svg width="18" height="21" viewBox="0 0 18 21" fill="none" xmlns="http://www.w3.org/2000/svg">
<path d="M16.9834 8.81455L3.47594 0.552361C3.19267 0.379672 2.86865 0.285234 2.53696 0.278686C2.20526 0.272138 1.87777 0.353715 1.58791 0.515089C1.29804 0.676464 1.05618 0.911859 0.887018 1.19725C0.717852 1.48264 0.627437 1.8078 0.625 2.13955V18.6639C0.627437 18.9957 0.717852 19.3208 0.887018 19.6062C1.05618 19.8916 1.29804 20.127 1.58791 20.2884C1.87777 20.4498 2.20526 20.5313 2.53696 20.5248C2.86865 20.5182 3.19267 20.4238 3.47594 20.2511L16.9834 11.9889C17.2558 11.8231 17.4809 11.59 17.6371 11.3121C17.7934 11.0341 17.8754 10.7206 17.8754 10.4017C17.8754 10.0829 17.7934 9.76938 17.6371 9.49141C17.4809 9.21344 17.2558 8.98034 16.9834 8.81455ZM2.875 17.9814V2.82205L15.265 10.4017L2.875 17.9814Z" fill="#0B0A0A"/>
</svg>
