<svg width="18" height="18" viewBox="0 0 18 18" fill="none" xmlns="http://www.w3.org/2000/svg">
<path d="M9 0.875C7.39303 0.875 5.82214 1.35152 4.486 2.24431C3.14985 3.1371 2.10844 4.40605 1.49348 5.8907C0.87852 7.37535 0.717618 9.00901 1.03112 10.5851C1.34463 12.1612 2.11846 13.6089 3.25476 14.7452C4.39106 15.8815 5.8388 16.6554 7.4149 16.9689C8.99099 17.2824 10.6247 17.1215 12.1093 16.5065C13.594 15.8916 14.8629 14.8502 15.7557 13.514C16.6485 12.1779 17.125 10.607 17.125 9C17.1227 6.84581 16.266 4.78051 14.7427 3.25727C13.2195 1.73403 11.1542 0.877275 9 0.875ZM9.625 15.8461V10.875H11.5C11.6658 10.875 11.8247 10.8092 11.9419 10.6919C12.0592 10.5747 12.125 10.4158 12.125 10.25C12.125 10.0842 12.0592 9.92527 11.9419 9.80806C11.8247 9.69085 11.6658 9.625 11.5 9.625H9.625V7.75C9.625 7.41848 9.7567 7.10054 9.99112 6.86612C10.2255 6.6317 10.5435 6.5 10.875 6.5H12.125C12.2908 6.5 12.4497 6.43415 12.5669 6.31694C12.6842 6.19973 12.75 6.04076 12.75 5.875C12.75 5.70924 12.6842 5.55027 12.5669 5.43306C12.4497 5.31585 12.2908 5.25 12.125 5.25H10.875C10.212 5.25 9.57608 5.51339 9.10724 5.98223C8.6384 6.45107 8.375 7.08696 8.375 7.75V9.625H6.5C6.33424 9.625 6.17527 9.69085 6.05806 9.80806C5.94085 9.92527 5.875 10.0842 5.875 10.25C5.875 10.4158 5.94085 10.5747 6.05806 10.6919C6.17527 10.8092 6.33424 10.875 6.5 10.875H8.375V15.8461C6.61312 15.6853 4.98107 14.8514 3.81831 13.5179C2.65556 12.1845 2.05162 10.4541 2.13212 8.68674C2.21263 6.91936 2.97137 5.25106 4.25053 4.02883C5.52969 2.80661 7.2308 2.12456 9 2.12456C10.7692 2.12456 12.4703 2.80661 13.7495 4.02883C15.0286 5.25106 15.7874 6.91936 15.8679 8.68674C15.9484 10.4541 15.3444 12.1845 14.1817 13.5179C13.0189 14.8514 11.3869 15.6853 9.625 15.8461Z" fill="white"/>
</svg>
